<?xml version="1.0" encoding="utf-8"?>
<!-- Generator: Adobe Illustrator 16.0.0, SVG Export Plug-In . SVG Version: 6.00 Build 0)  -->
<!DOCTYPE svg PUBLIC "-//W3C//DTD SVG 1.1//EN" "http://www.w3.org/Graphics/SVG/1.1/DTD/svg11.dtd">
<svg version="1.1" id="Layer_1" xmlns="http://www.w3.org/2000/svg" xmlns:xlink="http://www.w3.org/1999/xlink" x="0px" y="0px"
	 width="283.688px" height="162.411px" viewBox="0 0 283.688 162.411" enable-background="new 0 0 283.688 162.411"
	 xml:space="preserve">
<g>
	<path fill="#436CEF" d="M152.988,73.575c-2.424,3.479-2.773,7.348-2.832,11.279v15.278c0.019,0.351,0.039,0.701,0.042,1.053
		c0.006,0.726-0.111,1.761-0.229,2.366c-0.109,0.558-0.272,1.07-0.531,1.578c-0.385,0.751-0.812,1.475-1.496,1.982
		c-3.923,2.907-10.088,1.338-10.735-3.912c-0.081-0.658-0.244-1.312-0.258-1.984c-0.096-5.324,0.049-10.664,0.033-15.99
		c-0.022-7.418-0.066-13.994,4.116-20.191c0.846-1.254,1.914-2.399,3.025-3.429c2.032-1.883,4.495-3.38,7.048-4.472
		c2.403-1.026,4.886-1.891,7.447-2.322c-10.95-28.188-38.323-48.18-70.382-48.18c-41.699,0-75.501,33.803-75.501,75.5
		c0,41.698,33.803,75.501,75.501,75.501c41.697,0,75.5-33.803,75.5-75.501c0-4.705-0.452-9.303-1.275-13.771
		C158.516,68.635,155.283,70.282,152.988,73.575z"/>
	<path fill="#FBB30B" d="M226.021,85.225c0.023-7.418,0.066-13.994-4.115-20.191c-0.846-1.254-1.914-2.399-3.025-3.429
		c-2.033-1.883-4.496-3.38-7.049-4.472c-2.809-1.199-5.725-2.182-8.748-2.506c-0.857-0.093-1.738-0.098-2.623-0.074
		c-0.887-0.023-1.768-0.019-2.623,0.074c-3.025,0.324-5.941,1.307-8.75,2.506c-2.553,1.092-5.016,2.589-7.047,4.472
		c-0.183,0.169-0.36,0.345-0.538,0.52c-0.18-0.175-0.357-0.351-0.539-0.52c-2.032-1.883-4.495-3.38-7.048-4.472
		c-2.809-1.199-5.725-2.182-8.749-2.506c-0.856-0.093-1.737-0.098-2.623-0.074c-0.886-0.023-1.767-0.019-2.623,0.074
		c-0.437,0.047-0.87,0.11-1.302,0.184c1.686,4.338,2.979,8.867,3.843,13.55c0.027-0.002,0.054-0.007,0.082-0.009
		c3.983,0.256,7.244,1.906,9.556,5.223c2.147,3.084,2.665,6.473,2.796,9.941c0,0.564,0.002,1.133,0.004,1.709
		c0.006,2.229-0.016,4.456-0.035,6.685c-0.021,2.229-0.039,4.457-0.027,6.687c0.006,1.218,0.021,2.436,0.067,3.652
		c0.012,0.316-0.028,0.684,0.034,0.992c0.125,0.613,0.306,1.344,0.592,1.903c0.384,0.751,0.931,1.46,1.615,1.968
		c0.329,0.243,0.678,0.443,1.033,0.625c0.896,0.485,1.91,0.758,2.96,0.803c0.122,0.007,0.242,0.006,0.364,0.006
		c0.121,0,0.241,0.001,0.363-0.006c1.049-0.045,2.063-0.317,2.959-0.803c0.356-0.182,0.704-0.382,1.034-0.625
		c0.684-0.508,1.23-1.217,1.615-1.968c0.156-0.306,0.244-0.675,0.347-1c0.274-0.874,0.29-1.771,0.292-2.681
		c0.006-0.082,0.023-0.164,0.025-0.248c0.096-5.324-0.049-10.664-0.033-15.99c0.002-0.576,0.003-1.145,0.003-1.709
		c0.131-3.469,0.647-6.857,2.796-9.941c2.313-3.316,5.572-4.967,9.557-5.223c3.982,0.256,7.244,1.906,9.555,5.223
		c2.424,3.479,2.773,7.348,2.832,11.279v15.278c-0.018,0.351-0.039,0.701-0.041,1.053c-0.004,0.468,0.002,1.011,0.041,1.556v0.216
		c-0.158,0,0.523,2.04,0.6,2.188c0.383,0.751,0.93,1.46,1.615,1.968c3.922,2.907,10.088,1.338,10.734-3.912
		c0.082-0.658,0.244-1.312,0.258-1.984C226.15,95.891,226.005,90.551,226.021,85.225z"/>
	<path fill="#FFFFFF" d="M151.171,57.133c-2.553,1.092-5.016,2.589-7.048,4.472c-1.111,1.029-2.18,2.175-3.025,3.429
		c-4.183,6.197-4.139,12.773-4.116,20.191c0.016,5.326-0.129,10.666-0.033,15.99c0.014,0.673,0.177,1.326,0.258,1.984
		c0.647,5.25,6.813,6.819,10.735,3.912c0.685-0.508,1.111-1.231,1.496-1.982c0.259-0.508,0.422-1.021,0.531-1.578
		c0.117-0.605,0.234-1.641,0.229-2.366c-0.003-0.352-0.023-0.702-0.042-1.053V84.854c0.059-3.932,0.408-7.8,2.832-11.279
		c2.295-3.293,5.528-4.939,9.474-5.214c-0.864-4.683-2.157-9.212-3.843-13.55C156.057,55.243,153.575,56.107,151.171,57.133z"/>
</g>
<circle fill="#FFFFFF" cx="58.938" cy="82.715" r="27.667"/>
<path fill="#436CEF" d="M68.875,84.913c0,0,1.5-0.75,0-1.875l-17-10.25c0,0-1.438-0.719-1.875,0.875v20.625
	c0,0,0.5,1.375,1.875,0.625"/>
<path fill="#FFFFFF" d="M129.61,85.868c0.023-7.417-0.448-13.756-4.915-20.191c-2.827-4.075-7.095-7.17-11.734-8.734
	c-1.453-0.49-2.948-1.078-4.489-1.297c-2.331-0.332-4.858-0.638-7.207-0.375c-2.906,0.324-5.708,1.307-8.407,2.507
	c-2.453,1.091-4.819,2.588-6.772,4.471c-1.067,1.029-2.057,2.203-2.907,3.428c-4.466,6.435-4.938,12.774-4.916,20.191
	c0.015,5.326-0.124,10.666-0.032,15.991c0.013,0.673,0.092,1.341,0.248,1.983c1.152,4.753,7.507,6.819,11.276,3.912
	c0.658-0.507,1.184-1.217,1.553-1.968c0.073-0.147,0.728-2.187,0.574-2.187v-0.216c0.038-0.545,0.044-1.089,0.041-1.556
	c-0.003-0.352-0.023-0.703-0.041-1.053V85.497c0.057-3.932,0.393-7.799,2.722-11.279c2.251-3.361,5.436-5.017,9.333-5.239
	c3.897,0.222,7.08,1.877,9.332,5.239c2.329,3.479,2.665,7.347,2.722,11.279v15.279c-0.018,0.35-0.037,0.701-0.04,1.053
	c-0.003,0.467,0.003,1.011,0.04,1.556v0.216c-0.153,0,0.502,2.039,0.575,2.187c0.37,0.751,0.895,1.461,1.552,1.968
	c3.769,2.907,10.124,0.841,11.277-3.912c0.156-0.643,0.235-1.311,0.247-1.983C129.734,96.534,129.596,91.194,129.61,85.868z"/>
<path fill="#FBB30B" d="M244.745,102.798c0,3.544-2.873,6.416-6.417,6.416l0,0c-3.543,0-6.416-2.872-6.416-6.416V61.465
	c0-3.544,2.873-6.417,6.416-6.417l0,0c3.544,0,6.417,2.873,6.417,6.417V102.798z"/>
<path fill="#FBB30B" d="M276.338,64.455c0-2.303-1.341-4.654-3.456-5.639c-0.642-0.299-1.426-0.577-2.132-0.664
	c-1.824-0.225-3.879,0.468-5.605,1.006c-1.254,0.391-5.286,2.881-7.231,5.125c-1.067,1.232-1.978,2.618-2.78,4.035
	c-1.762,3.112-2.883,6.59-3.262,10.147h-0.054v24.333c0,3.544,2.873,6.416,6.416,6.416c3.544,0,6.417-2.872,6.417-6.416
	c0,0-0.002-23.862,0-23.875c0.158-1.035,0.301-1.552,0.557-2.202c0.603-1.525,1.518-3.1,2.805-4.141
	c1.279-1.036,2.89-1.879,4.421-2.457C274.734,69.255,276.338,66.856,276.338,64.455z"/>
</svg>
